<?xml version="1.0" encoding="UTF-8" standalone="no"?>
<!DOCTYPE svg PUBLIC "-//W3C//DTD SVG 1.1//EN"
 "http://www.w3.org/Graphics/SVG/1.1/DTD/svg11.dtd">
<!-- Generated by graphviz version 2.47.0 (20210316.0004)
 -->
<!-- Title: dependencies Pages: 1 -->
<svg width="640pt" height="211pt"
 viewBox="0.00 0.00 640.00 211.00" xmlns="http://www.w3.org/2000/svg" xmlns:xlink="http://www.w3.org/1999/xlink">
<g id="graph0" class="graph" transform="scale(1 1) rotate(0) translate(4 207)">
<title>dependencies</title>
<polygon fill="white" stroke="transparent" points="-4,4 -4,-207 636,-207 636,4 -4,4"/>
<text text-anchor="start" x="295.01" y="-42.4" font-family="Times-12" font-weight="bold" font-size="14.00">Legend</text>
<polygon fill="#ffffb3" stroke="transparent" points="82,-10 82,-30 102,-30 102,-10 82,-10"/>
<text text-anchor="start" x="105.63" y="-15.4" font-family="Times-12" font-size="14.00"> &#160;Declarations</text>
<polygon fill="#8dd3c7" stroke="transparent" points="195,-10 195,-30 215,-30 215,-10 195,-10"/>
<text text-anchor="start" x="218.73" y="-15.4" font-family="Times-12" font-size="14.00"> &#160;Module</text>
<polygon fill="#80b1d3" stroke="transparent" points="281,-10 281,-30 301,-30 301,-10 281,-10"/>
<text text-anchor="start" x="304.78" y="-15.4" font-family="Times-12" font-size="14.00"> &#160;Bootstrap</text>
<polygon fill="#fdb462" stroke="transparent" points="378,-10 378,-30 398,-30 398,-10 378,-10"/>
<text text-anchor="start" x="401.67" y="-15.4" font-family="Times-12" font-size="14.00"> &#160;Providers</text>
<polygon fill="#fb8072" stroke="transparent" points="474,-10 474,-30 494,-30 494,-10 474,-10"/>
<text text-anchor="start" x="497.73" y="-15.4" font-family="Times-12" font-size="14.00"> &#160;Exports</text>
<g id="clust1" class="cluster">
<title>cluster_CitasModule</title>
<polygon fill="none" stroke="black" stroke-dasharray="1,5" points="8,-70 8,-195 624,-195 624,-70 8,-70"/>
</g>
<g id="clust6" class="cluster">
<title>cluster_CitasModule_imports</title>
<polygon fill="none" stroke="black" points="466,-78 466,-130 616,-130 616,-78 466,-78"/>
</g>
<g id="clust2" class="cluster">
<title>cluster_CitasModule_declarations</title>
<polygon fill="none" stroke="black" points="16,-78 16,-130 458,-130 458,-78 16,-78"/>
</g>
<!-- CitaComponent -->
<g id="node1" class="node">
<title>CitaComponent</title>
<polygon fill="#ffffb3" stroke="black" points="450.17,-122 345.83,-122 345.83,-86 450.17,-86 450.17,-122"/>
<text text-anchor="middle" x="398" y="-99.8" font-family="Times,serif" font-size="14.00">CitaComponent</text>
</g>
<!-- CitasModule -->
<g id="node4" class="node">
<title>CitasModule</title>
<polygon fill="#8dd3c7" stroke="black" points="371.33,-187 368.33,-191 347.33,-191 344.33,-187 282.67,-187 282.67,-151 371.33,-151 371.33,-187"/>
<text text-anchor="middle" x="327" y="-164.8" font-family="Times,serif" font-size="14.00">CitasModule</text>
</g>
<!-- CitaComponent&#45;&gt;CitasModule -->
<g id="edge1" class="edge">
<title>CitaComponent&#45;&gt;CitasModule</title>
<path fill="none" stroke="black" d="M358.42,-122.11C358.42,-122.11 358.42,-140.99 358.42,-140.99"/>
<polygon fill="black" stroke="black" points="354.92,-140.99 358.42,-150.99 361.92,-140.99 354.92,-140.99"/>
</g>
<!-- CitaNuevaComponent -->
<g id="node2" class="node">
<title>CitaNuevaComponent</title>
<polygon fill="#ffffb3" stroke="black" points="327.7,-122 186.3,-122 186.3,-86 327.7,-86 327.7,-122"/>
<text text-anchor="middle" x="257" y="-99.8" font-family="Times,serif" font-size="14.00">CitaNuevaComponent</text>
</g>
<!-- CitaNuevaComponent&#45;&gt;CitasModule -->
<g id="edge2" class="edge">
<title>CitaNuevaComponent&#45;&gt;CitasModule</title>
<path fill="none" stroke="black" d="M305.22,-122.11C305.22,-122.11 305.22,-140.99 305.22,-140.99"/>
<polygon fill="black" stroke="black" points="301.72,-140.99 305.22,-150.99 308.72,-140.99 301.72,-140.99"/>
</g>
<!-- TarjetaCitaComponent -->
<g id="node3" class="node">
<title>TarjetaCitaComponent</title>
<polygon fill="#ffffb3" stroke="black" points="168.3,-122 23.7,-122 23.7,-86 168.3,-86 168.3,-122"/>
<text text-anchor="middle" x="96" y="-99.8" font-family="Times,serif" font-size="14.00">TarjetaCitaComponent</text>
</g>
<!-- TarjetaCitaComponent&#45;&gt;CitasModule -->
<g id="edge3" class="edge">
<title>TarjetaCitaComponent&#45;&gt;CitasModule</title>
<path fill="none" stroke="black" d="M96,-122.11C96,-141.34 96,-169 96,-169 96,-169 272.73,-169 272.73,-169"/>
<polygon fill="black" stroke="black" points="272.73,-172.5 282.73,-169 272.73,-165.5 272.73,-172.5"/>
</g>
<!-- CitasRoutingModule -->
<g id="node5" class="node">
<title>CitasRoutingModule</title>
<polygon fill="#8dd3c7" stroke="black" points="607.95,-122 604.95,-126 583.95,-126 580.95,-122 474.05,-122 474.05,-86 607.95,-86 607.95,-122"/>
<text text-anchor="middle" x="541" y="-99.8" font-family="Times,serif" font-size="14.00">CitasRoutingModule</text>
</g>
<!-- CitasRoutingModule&#45;&gt;CitasModule -->
<g id="edge4" class="edge">
<title>CitasRoutingModule&#45;&gt;CitasModule</title>
<path fill="none" stroke="black" d="M541,-122.11C541,-141.34 541,-169 541,-169 541,-169 381.34,-169 381.34,-169"/>
<polygon fill="black" stroke="black" points="381.34,-165.5 371.34,-169 381.34,-172.5 381.34,-165.5"/>
</g>
</g>
</svg>
